# xmcd
#
# Track frame offsets: 
#        150
#        19535
#        49048
#        61708
#        74640
#        86378
#        99466
#        110600
#        122806
#        130516
#        142695
#        153455
#        166856
#        175130
#        191239
#        212078
#        226780
#        240919
#        248812
#
# Disc length: 3420 seconds
#
# Revision: 1
# Processed by: cddbd v1.5.2PL0 Copyright (c) Steve Scherf et al.
# Submitted via: ExactAudioCopy v0.99pb4
#
DISCID=f00d5a13
DTITLE=Grigore Leºe - Cântece de cãtãnie
DYEAR=1996
DGENRE=Folklore
TTITLE0=Cântec de câtãnie
TTITLE1=Trimãs-o împãtatu carte
TTITLE2=Decât la neamþu cãtanã
TTITLE3=Cântec despre bucovina
TTITLE4=Pãsãrucã di pã munte
TTITLE5=Miresucã cu mãrgele
TTITLE6=Strigãturi
TTITLE7=La hore lãpuºeneascã
TTITLE8=Zâcala miresii (violã)
TTITLE9=Ia-ti mireasã cununa
TTITLE10=Mãi bãnditã rar în pasi
TTITLE11=Mãieran în cornu mesii
TTITLE12=Mândruþ gurã dezmierdatã
TTITLE13=Zis-o mama cãtã mine
TTITLE14=Frunzã-n prun, frunzã su' prun
TTITLE15=Dupã pui de lãpusan
TTITLE16=Nu gândeascã tãt omu'
TTITLE17=Primãvarã, primãvarã
TTITLE18=Bonus track
EXTD=
EXTT0=
EXTT1=
EXTT2=
EXTT3=
EXTT4=
EXTT5=
EXTT6=
EXTT7=
EXTT8=
EXTT9=
EXTT10=
EXTT11=
EXTT12=
EXTT13=
EXTT14=
EXTT15=
EXTT16=
EXTT17=
EXTT18=
PLAYORDER=
